<?xml version="1.0" standalone="no"?>
<!DOCTYPE svg PUBLIC "-//W3C//DTD SVG 20010904//EN"
 "http://www.w3.org/TR/2001/REC-SVG-20010904/DTD/svg10.dtd">
<svg version="1.0" xmlns="http://www.w3.org/2000/svg"
 width="300.000000pt" height="300.000000pt" viewBox="0 0 300.000000 300.000000"
 preserveAspectRatio="xMidYMid meet">
<metadata>
Created by potrace 1.14, written by Peter Selinger 2001-2017
</metadata>
<g transform="translate(0.000000,300.000000) scale(0.100000,-0.100000)"
fill="#000000" stroke="none">
<path d="M1587 2424 c-1 -1 -72 -5 -157 -8 -202 -9 -330 -16 -355 -21 -11 -2
-24 -4 -30 -4 -35 -4 -46 -54 -60 -283 -3 -46 -7 -103 -10 -128 -3 -25 -7 -74
-10 -110 -3 -36 -8 -72 -10 -80 -2 -8 -7 -40 -10 -70 -3 -30 -8 -62 -10 -70
-4 -15 -9 -47 -24 -156 -19 -131 26 -219 110 -216 15 0 39 8 52 17 35 23 46
56 63 185 3 25 9 70 14 100 6 30 12 78 15 105 3 28 7 61 10 75 5 29 11 80 20
165 21 200 31 232 86 261 39 20 176 21 196 1 11 -11 10 -32 -7 -122 -26 -145
-26 -142 -55 -280 -33 -155 -65 -313 -71 -345 -2 -14 -9 -45 -15 -70 -52 -229
-43 -287 45 -295 28 -3 42 1 58 17 l22 22 -30 8 c-16 4 -34 6 -41 4 -17 -7
-32 16 -29 44 2 14 11 59 19 100 9 41 34 167 56 280 22 113 42 216 45 230 29
148 38 197 41 221 2 16 6 36 9 46 3 10 7 35 10 56 3 20 8 52 11 70 4 26 1 38
-16 53 -18 16 -36 19 -138 19 -104 0 -120 -2 -154 -24 -51 -31 -74 -81 -81
-174 -3 -42 -8 -87 -10 -99 -3 -13 -7 -45 -10 -73 -6 -54 -12 -101 -26 -210
-5 -38 -12 -92 -15 -120 -10 -88 -15 -109 -31 -147 -19 -42 -37 -53 -65 -38
-32 18 -36 77 -15 240 2 19 7 58 10 85 3 28 8 68 11 90 28 232 33 284 41 425
3 63 10 122 15 131 4 9 23 16 47 17 22 2 50 5 63 7 13 3 180 7 372 10 256 5
352 3 362 -5 11 -9 13 -33 10 -103 -6 -117 -13 -350 -20 -642 -10 -382 -12
-397 -63 -427 -15 -9 -45 -19 -67 -23 -71 -13 -90 -46 -100 -180 -3 -38 -8
-97 -11 -130 -4 -33 -8 -80 -9 -105 -3 -33 -10 -51 -29 -67 -65 -55 -318 -36
-423 32 -29 19 -39 44 -47 115 -3 30 -7 64 -10 75 -2 11 -6 40 -9 65 -15 118
-18 155 -15 161 6 11 -24 39 -43 39 -24 0 -25 -4 -15 -95 9 -85 14 -116 38
-245 27 -142 37 -154 170 -195 201 -63 435 -26 439 69 0 11 2 30 4 41 2 11 6
58 9 105 14 218 22 243 81 254 87 17 137 66 150 148 7 45 13 220 16 470 1 108
5 202 9 208 4 7 26 16 49 20 50 9 48 15 37 -120 -15 -186 -18 -236 -20 -367
-2 -147 -9 -173 -47 -173 -10 0 -20 -4 -23 -8 -10 -17 13 -35 45 -35 48 0 79
40 80 106 1 29 2 77 4 107 1 30 5 121 9 201 3 81 10 166 14 190 6 38 7 73 3
116 -3 31 -34 45 -95 41 l-61 -3 3 197 c3 190 3 197 -17 208 -17 9 -355 22
-364 14z"/>
<path d="M1640 1853 c-8 -3 -29 -12 -47 -20 -52 -24 -57 -72 -5 -51 60 24 96
20 137 -12 41 -33 52 -34 69 -7 29 46 -85 112 -154 90z"/>
</g>
</svg>
