<?xml version="1.0" standalone="no"?>
<!DOCTYPE svg PUBLIC "-//W3C//DTD SVG 20010904//EN"
 "http://www.w3.org/TR/2001/REC-SVG-20010904/DTD/svg10.dtd">
<svg version="1.0" xmlns="http://www.w3.org/2000/svg"
 width="300.000000pt" height="300.000000pt" viewBox="0 0 300.000000 300.000000"
 preserveAspectRatio="xMidYMid meet">
<metadata>
Created by potrace 1.14, written by Peter Selinger 2001-2017
</metadata>
<g transform="translate(0.000000,300.000000) scale(0.100000,-0.100000)"
fill="#000000" stroke="none">
<path d="M1627 2654 c-1 -1 -94 -5 -207 -9 -113 -3 -225 -8 -250 -10 -25 -2
-88 -7 -140 -10 -52 -4 -103 -11 -112 -16 -34 -18 -39 -41 -53 -249 -3 -41 -8
-102 -11 -135 -7 -85 -13 -150 -19 -225 -3 -36 -8 -76 -10 -90 -2 -14 -7 -45
-10 -70 -7 -53 -34 -234 -40 -270 -2 -14 -7 -41 -10 -60 -29 -163 28 -290 131
-290 39 0 95 37 113 74 12 26 29 120 47 256 3 25 7 56 10 70 6 36 42 315 49
380 3 30 8 71 10 90 3 19 7 62 10 95 8 79 41 144 85 169 28 17 53 20 138 20
125 1 135 -6 120 -82 -5 -26 -11 -63 -14 -82 -10 -63 -80 -407 -124 -610 -11
-52 -22 -104 -24 -115 -2 -11 -18 -90 -35 -176 -47 -238 -46 -292 5 -326 36
-23 102 -19 131 9 28 26 16 38 -39 38 -43 0 -70 23 -64 53 23 109 116 579 120
602 3 17 14 73 25 125 11 52 22 109 25 125 17 90 32 174 41 215 3 14 8 43 11
65 3 22 9 58 14 80 16 72 1 121 -38 129 -72 16 -229 15 -284 0 -112 -32 -152
-101 -163 -289 -4 -54 -8 -102 -10 -105 -1 -3 -6 -27 -9 -55 -9 -68 -24 -190
-31 -250 -3 -27 -8 -61 -10 -75 -2 -14 -9 -70 -15 -125 -8 -65 -20 -118 -36
-151 -29 -62 -56 -73 -90 -39 -21 21 -27 40 -27 95 0 19 13 155 18 195 2 17 7
57 10 90 3 33 8 71 10 85 2 14 7 50 10 80 7 72 16 149 20 180 2 14 7 61 10
104 4 44 8 88 10 98 2 10 7 76 10 146 4 76 11 132 18 139 20 20 203 30 728 38
269 4 318 3 329 -9 11 -15 11 -92 -5 -506 -2 -58 -7 -206 -10 -330 -14 -554
-13 -537 -34 -578 -20 -40 -65 -69 -119 -78 -46 -8 -66 -16 -85 -32 -24 -22
-45 -102 -52 -202 -3 -47 -8 -101 -10 -120 -3 -19 -7 -73 -10 -120 -10 -145
-47 -172 -235 -172 -36 0 -87 3 -114 6 -105 15 -250 78 -260 114 -7 26 -15 71
-21 131 -4 30 -9 63 -11 75 -2 12 -7 41 -10 66 -3 25 -7 56 -9 69 -3 14 -7 54
-11 90 -8 84 -18 103 -52 99 -23 -3 -27 -8 -26 -33 1 -46 15 -188 19 -195 1
-3 6 -27 9 -54 4 -28 18 -104 31 -170 29 -146 40 -159 170 -205 156 -56 272
-68 412 -42 107 20 152 46 168 99 7 23 11 62 20 182 2 36 7 88 10 115 2 28 7
76 10 109 8 75 21 94 70 107 83 21 126 42 152 74 56 70 59 106 67 630 3 171 8
318 12 328 6 18 46 31 94 32 23 0 25 -3 24 -45 -1 -52 -14 -195 -20 -225 -3
-11 -7 -130 -10 -265 -7 -268 -10 -283 -64 -294 -39 -7 -38 -36 3 -50 63 -23
127 39 126 123 0 86 20 519 26 566 2 17 7 62 10 100 4 39 9 72 10 75 2 3 -3
20 -10 38 -18 41 -48 52 -129 46 l-66 -5 4 241 c5 293 10 280 -116 281 -46 0
-141 2 -211 3 -70 1 -129 1 -130 0z"/>
<path d="M1673 1940 c-54 -12 -98 -43 -101 -73 -4 -31 7 -33 49 -11 60 30 123
19 178 -32 31 -29 36 -29 61 -4 25 25 25 31 -1 64 -39 49 -113 72 -186 56z"/>
</g>
</svg>
